# xmcd
#
# Track frame offsets: 
#        150
#        11386
#        26413
#        35673
#        49237
#        66676
#        80464
#        92102
#
# Disc length: 1399 seconds
#
# Revision: 0
# Processed by: cddbd v1.5.2PL0 Copyright (c) Steve Scherf et al.
# Submitted via: ExactAudioCopy v0.99pb3
#
DISCID=64057508
DTITLE=Deadmen's Suit - One Foot Ahead of the Blues [DigiMCD]
DYEAR=2014
DGENRE=Country Blues
TTITLE0=Mean Old Road
TTITLE1=Harlan
TTITLE2=One Foot Ahead of the Blues
TTITLE3=This Side of December
TTITLE4=Misery Train
TTITLE5=Jesus Cries
TTITLE6=Run for it
TTITLE7=April
EXTD=
EXTT0=
EXTT1=
EXTT2=
EXTT3=
EXTT4=
EXTT5=
EXTT6=
EXTT7=
PLAYORDER=
